HIERARCHY
ROOT joint_Root
{
	OFFSET 0.0 0.0 0.0
	CHANNELS 6 Xposition Yposition Zposition Zrotation Xrotation Yrotation 
	JOINT Hips
	{
		OFFSET -0.726466 93.3139 -2.00062
		CHANNELS 6 Xposition Yposition Zposition Zrotation Xrotation Yrotation 
		JOINT Spine
		{
			OFFSET 15.7357 0.0 0.0
			CHANNELS 6 Xposition Yposition Zposition Zrotation Xrotation Yrotation 
			JOINT Chest
			{
				OFFSET 8.98455 -0.406207 0.0
				CHANNELS 6 Xposition Yposition Zposition Zrotation Xrotation Yrotation 
				JOINT Neck
				{
					OFFSET 16.3773 0.0 0.0
					CHANNELS 6 Xposition Yposition Zposition Zrotation Xrotation Yrotation 
					JOINT Head
					{
						OFFSET 6.45672 0.0 0.0
						CHANNELS 6 Xposition Yposition Zposition Zrotation Xrotation Yrotation 
						End Site
						{
							OFFSET 0.0 0.0 0.0
						}
					}
				}
				JOINT Shoulder_L
				{
					OFFSET 12.9942 -0.242716 4.98039
					CHANNELS 6 Xposition Yposition Zposition Zrotation Xrotation Yrotation 
					JOINT UpperArm_L
					{
						OFFSET 5.34809 0.0 0.0
						CHANNELS 6 Xposition Yposition Zposition Zrotation Xrotation Yrotation 
						JOINT LowerArm_L
						{
							OFFSET 24.3286 1.87007e-05 0.0
							CHANNELS 6 Xposition Yposition Zposition Zrotation Xrotation Yrotation 
							JOINT Hand_L
							{
								OFFSET 22.2916 0.0 0.0
								CHANNELS 6 Xposition Yposition Zposition Zrotation Xrotation Yrotation 
								End Site
								{
									OFFSET 0.0 0.0 0.0
								}
							}
						}
					}
				}
				JOINT Shoulder_R
				{
					OFFSET 12.9945 -0.242716 -4.98039
					CHANNELS 6 Xposition Yposition Zposition Zrotation Xrotation Yrotation 
					JOINT UpperArm_R
					{
						OFFSET -5.34813 0.0 0.0
						CHANNELS 6 Xposition Yposition Zposition Zrotation Xrotation Yrotation 
						JOINT LowerArm_R
						{
							OFFSET -24.3289 0.000322201 0.0
							CHANNELS 6 Xposition Yposition Zposition Zrotation Xrotation Yrotation 
							JOINT Hand_R
							{
								OFFSET -22.2915 -0.000108084 0.0
								CHANNELS 6 Xposition Yposition Zposition Zrotation Xrotation Yrotation 
								End Site
								{
									OFFSET 0.0 0.0 0.0
								}
							}
						}
					}
				}
			}
		}
		JOINT UpperLeg_L
		{
			OFFSET -2.19248 -6.46944 0.0
			CHANNELS 6 Xposition Yposition Zposition Zrotation Xrotation Yrotation 
			JOINT LowerLeg_L
			{
				OFFSET 39.0811 0.0 -1.23785e-05
				CHANNELS 6 Xposition Yposition Zposition Zrotation Xrotation Yrotation 
				JOINT Foot_L
				{
					OFFSET 40.9854 0.0 -1.26872e-05
					CHANNELS 6 Xposition Yposition Zposition Zrotation Xrotation Yrotation 
					JOINT Toes_L
					{
						OFFSET 11.7543 0.0 0.0
						CHANNELS 6 Xposition Yposition Zposition Zrotation Xrotation Yrotation 
						End Site
						{
							OFFSET 0.0 0.0 0.0
						}
					}
				}
			}
		}
		JOINT UpperLeg_R
		{
			OFFSET -2.19251 6.46944 0.0
			CHANNELS 6 Xposition Yposition Zposition Zrotation Xrotation Yrotation 
			JOINT LowerLeg_R
			{
				OFFSET -39.0811 -0.00228153 -0.0401928
				CHANNELS 6 Xposition Yposition Zposition Zrotation Xrotation Yrotation 
				JOINT Foot_R
				{
					OFFSET -40.9854 0.0 0.0
					CHANNELS 6 Xposition Yposition Zposition Zrotation Xrotation Yrotation 
					JOINT Toes_R
					{
						OFFSET -11.7543 0.0 0.0
						CHANNELS 6 Xposition Yposition Zposition Zrotation Xrotation Yrotation 
						End Site
						{
							OFFSET 0.0 0.0 0.0
						}
					}
				}
			}
		}
	}
}
MOTION
Frames:	4
Frame Time:	0.0333333
0.000000 0.000000 0.000000 0.000000 0.000000 -0.000000 -1.198240 92.384700 -2.163320 87.768700 -0.515588 1.952410 15.735700 0.000005 -0.000001 81.416500 88.251900 -80.735200 8.984550 -0.406207 -0.000000 -4.305310 -0.593123 1.341130 16.377300 -0.000001 -0.000001 -6.104350 -2.897720 1.396970 6.456720 -0.000001 -0.000000 -4.254690 -1.334520 -2.422570 12.994200 -0.242716 4.980390 -84.455500 -11.705200 -64.429800 5.348090 -0.000007 -0.000001 -61.307100 -63.880900 -90.770700 24.328600 0.000019 0.000005 -3.406140 -1.686270 -63.691700 22.291600 -0.000001 0.000005 18.184500 5.627310 -13.137700 12.994500 -0.242716 -4.980390 92.387700 -5.097710 -64.860500 -5.348130 -0.000001 -0.000004 -57.733700 -60.456000 -104.762000 -24.328900 0.000322 -0.000009 0.261237 0.209131 -51.451400 -22.291500 -0.000108 -0.000004 21.111200 5.570380 -9.707970 -2.192480 -6.469440 -0.000000 -169.579000 -14.887100 -3.178770 39.081100 -0.000007 -0.000012 -0.142456 0.408536 19.223800 40.985400 -0.000006 -0.000013 -5.796970 3.850890 -62.454300 11.754300 -0.000000 0.000003 -0.000024 -0.000301 -16.589300 -2.192510 6.469440 -0.000001 175.900000 19.704300 178.041000 -39.081100 -0.002282 -0.040193 0.036873 -0.102086 18.191800 -40.985400 0.000008 0.000006 -0.129432 1.187950 -62.797300 -11.754300 -0.000006 -0.000006 -0.007906 -0.087263 -20.126400
0.000000 0.000000 0.000000 0.000000 0.000000 -0.000000 -1.214140 92.383800 -2.138140 87.752500 -0.545737 1.930100 15.735700 0.000005 -0.000001 81.348800 88.217000 -80.650300 8.984550 -0.406207 -0.000000 -4.236640 -0.609115 1.375240 16.377300 -0.000001 -0.000001 -6.011720 -2.961140 1.454110 6.456720 -0.000001 -0.000000 -4.269240 -1.356610 -2.538010 12.994200 -0.242716 4.980390 -84.455600 -11.723000 -64.463200 5.348090 -0.000007 -0.000001 -60.694200 -64.208500 -89.245200 24.328600 0.000019 0.000005 -3.550630 -1.721060 -64.171800 22.291600 -0.000001 0.000005 18.034200 5.623490 -12.863200 12.994500 -0.242716 -4.980390 92.397500 -5.093550 -64.751900 -5.348130 -0.000001 -0.000004 -57.557100 -60.620400 -104.128000 -24.328900 0.000322 -0.000009 0.316777 0.253702 -51.417200 -22.291500 -0.000108 -0.000004 20.983800 5.565120 -9.440990 -2.192480 -6.469440 -0.000000 -169.548000 -14.934600 -3.177880 39.081100 -0.000007 -0.000012 -0.141911 0.407100 19.218200 40.985400 -0.000006 -0.000013 -5.806820 3.882840 -62.460300 11.754300 -0.000000 0.000003 -0.000028 -0.000336 -16.590700 -2.192510 6.469440 -0.000001 175.929000 19.700000 178.026000 -39.081100 -0.002282 -0.040193 0.036667 -0.101453 18.193100 -40.985400 0.000008 0.000006 -0.156544 1.219190 -62.795900 -11.754300 -0.000006 -0.000006 -0.007810 -0.086477 -20.094300
0.000000 0.000000 0.000000 0.000000 0.000000 -0.000000 -1.220050 92.382800 -2.127350 87.725400 -0.598131 1.867450 15.735700 0.000005 -0.000001 81.539500 88.191300 -80.826400 8.984550 -0.406207 -0.000000 -4.183910 -0.606166 1.404820 16.377300 -0.000001 -0.000001 -5.905650 -3.017370 1.518840 6.456720 -0.000001 -0.000000 -4.263770 -1.399970 -2.615300 12.994200 -0.242716 4.980390 -84.437000 -11.761900 -64.461200 5.348090 -0.000007 -0.000001 -60.071700 -64.450000 -87.466900 24.328600 0.000019 0.000005 -3.873250 -1.832560 -64.717200 22.291600 -0.000001 0.000005 17.708900 5.617160 -12.426900 12.994500 -0.242716 -4.980390 92.413100 -5.103970 -64.653100 -5.348130 -0.000001 -0.000004 -57.253900 -60.806500 -103.091000 -24.328900 0.000322 -0.000009 0.616349 0.490906 -51.519800 -22.291500 -0.000108 -0.000004 20.700000 5.554090 -8.900750 -2.192480 -6.469440 -0.000000 -169.532000 -14.937500 -3.223950 39.081100 -0.000007 -0.000012 -0.142192 0.407554 19.233600 40.985400 -0.000006 -0.000013 -5.821270 3.831190 -62.489200 11.754300 -0.000000 0.000003 -0.000026 -0.000317 -16.589900 -2.192510 6.469440 -0.000001 175.990000 19.694900 177.959000 -39.081100 -0.002282 -0.040193 0.036771 -0.101819 18.184800 -40.985400 0.000008 0.000006 -0.140391 1.211540 -62.793200 -11.754300 -0.000006 -0.000006 -0.007752 -0.085994 -20.074600
0.000000 0.000000 0.000000 0.000000 0.000000 -0.000000 -1.225740 92.382000 -2.109890 87.722700 -0.658686 1.828900 15.735700 0.000005 -0.000001 82.171000 88.155800 -81.456500 8.984550 -0.406207 -0.000000 -4.108190 -0.576069 1.409080 16.377300 -0.000001 -0.000001 -5.773830 -3.040540 1.570970 6.456720 -0.000001 -0.000000 -4.267430 -1.398810 -2.629750 12.994200 -0.242716 4.980390 -84.424600 -11.780300 -64.445300 5.348090 -0.000007 -0.000001 -58.956000 -64.631000 -85.031500 24.328600 0.000019 0.000005 -4.493130 -2.077880 -65.231100 22.291600 -0.000001 0.000005 17.277700 5.612760 -12.136600 12.994500 -0.242716 -4.980390 92.382900 -5.026910 -64.595800 -5.348130 -0.000001 -0.000004 -56.296600 -61.152400 -101.262000 -24.328900 0.000322 -0.000009 0.953521 0.753951 -51.705500 -22.291500 -0.000108 -0.000004 20.368800 5.540290 -8.255630 -2.192480 -6.469440 -0.000000 -169.530000 -14.956100 -3.234630 39.081100 -0.000007 -0.000012 -0.142477 0.408625 19.222500 40.985400 -0.000006 -0.000013 -5.837180 3.788670 -62.499000 11.754300 -0.000000 0.000003 -0.000028 -0.000341 -16.590900 -2.192510 6.469440 -0.000001 175.998000 19.643800 177.926000 -39.081100 -0.002282 -0.040193 0.036967 -0.102413 18.185400 -40.985400 0.000008 0.000006 -0.131390 1.272340 -62.798400 -11.754300 -0.000006 -0.000006 -0.007919 -0.087373 -20.130900
